<?xml version="1.0" standalone="no"?>
<!DOCTYPE svg PUBLIC "-//W3C//DTD SVG 20010904//EN"
 "http://www.w3.org/TR/2001/REC-SVG-20010904/DTD/svg10.dtd">
<svg version="1.0" xmlns="http://www.w3.org/2000/svg"
 width="686.000000pt" height="686.000000pt" viewBox="0 0 686.000000 686.000000"
 preserveAspectRatio="xMidYMid meet">
<metadata>
Created by potrace 1.14, written by Peter Selinger 2001-2017
</metadata>
<g transform="translate(0.000000,686.000000) scale(0.100000,-0.100000)"
fill="#000000" stroke="none">
<path d="M1004 6663 c0 -120 4 -190 11 -194 5 -4 187 -6 403 -5 217 0 398 -2
404 -5 11 -7 14 -2094 3 -2189 -4 -36 -12 -58 -23 -64 -29 -16 -82 -79 -82
-97 0 -10 -4 -20 -9 -23 -5 -3 -7 -35 -5 -71 l4 -65 -47 -47 c-80 -80 -125
-107 -239 -144 -55 -17 -98 -22 -209 -25 -180 -4 -275 17 -391 87 -161 97
-269 315 -267 537 l1 32 -215 0 -215 0 6 -92 c4 -51 9 -106 12 -123 2 -16 6
-39 7 -50 2 -12 7 -26 11 -33 4 -7 5 -12 2 -12 -7 0 48 -161 70 -200 10 -19
18 -37 19 -40 0 -3 18 -32 40 -65 46 -70 217 -245 239 -245 2 0 34 -18 70 -40
36 -22 72 -40 79 -40 7 0 17 -4 23 -9 33 -31 280 -82 404 -84 48 -1 87 -3 85
-5 -2 -2 -46 -25 -98 -52 -370 -187 -652 -490 -820 -880 -40 -95 -100 -297
-91 -311 3 -5 2 -9 -3 -9 -7 0 -13 -34 -16 -92 -1 -10 -4 -18 -7 -18 -7 0 -9
-52 -11 -225 -1 -159 6 -242 32 -356 6 -26 12 -53 13 -60 12 -63 74 -249 87
-264 5 -5 9 -17 9 -27 0 -10 5 -18 10 -18 6 0 10 -6 10 -14 0 -23 126 -245
150 -266 4 -3 22 -27 40 -55 60 -88 337 -355 369 -355 6 0 11 -3 11 -7 0 -15
142 -99 265 -157 67 -33 222 -90 268 -101 12 -2 51 -11 87 -19 70 -15 122 -24
211 -35 95 -12 381 -3 439 14 8 2 31 6 50 9 29 5 97 21 170 40 127 34 334 131
453 213 43 29 81 53 83 53 3 0 15 9 27 20 12 11 42 37 66 57 135 115 271 275
363 428 57 95 138 264 138 288 0 7 3 17 7 21 4 3 8 12 9 19 1 7 9 33 17 59 9
26 18 57 21 70 2 13 9 41 14 63 6 22 14 59 17 82 3 23 8 57 11 75 8 54 13 270
19 698 2 223 5 405 5 405 1 0 3 90 5 200 2 110 7 335 10 500 3 165 7 433 10
595 13 1030 19 1312 29 1360 48 229 86 333 174 480 100 166 245 319 402 425
100 66 232 135 260 135 9 0 20 3 24 8 4 4 11 7 14 8 4 0 15 4 24 8 9 4 25 9
35 11 10 2 18 4 18 5 0 2 22 7 60 15 17 3 37 8 45 11 8 3 37 7 65 10 27 3 56
7 64 10 7 2 66 5 130 5 278 1 506 -69 751 -229 71 -47 261 -223 305 -283 111
-150 207 -343 230 -462 2 -9 6 -21 9 -25 2 -4 7 -27 11 -52 4 -25 8 -47 10
-50 7 -12 18 -141 18 -220 1 -290 -81 -551 -246 -782 -102 -142 -242 -276
-361 -347 -23 -14 -43 -27 -46 -30 -12 -15 -113 -62 -200 -94 -178 -66 -218
-73 -595 -103 -44 -3 -90 -7 -103 -9 -13 -2 -22 0 -20 5 3 8 121 137 256 279
35 36 73 84 84 106 24 46 27 119 7 168 -28 67 -108 119 -185 119 -77 0 -111
-26 -281 -208 -21 -23 -81 -87 -133 -144 -142 -153 -162 -175 -285 -305 -167
-178 -175 -191 -170 -278 5 -86 -3 -76 241 -303 60 -56 128 -119 150 -140 23
-22 69 -65 103 -96 56 -52 60 -59 51 -83 -10 -26 -17 -56 -26 -110 -3 -16 -7
-88 -9 -160 -2 -98 1 -151 15 -215 54 -252 199 -456 425 -601 41 -26 186 -99
197 -99 4 0 19 -5 35 -12 15 -6 33 -12 38 -14 6 -1 30 -9 55 -17 44 -15 155
-47 175 -51 6 -1 37 -11 70 -21 33 -10 66 -20 73 -22 6 -1 18 -4 25 -6 6 -2
32 -10 57 -17 25 -8 47 -14 50 -15 90 -21 241 -85 268 -112 7 -7 17 -13 20
-13 14 0 96 -87 131 -140 92 -136 117 -293 77 -485 -4 -22 -45 -112 -61 -134
-5 -8 -37 -42 -70 -75 -84 -84 -189 -134 -339 -160 -71 -12 -305 -14 -356 -3
-14 3 -41 8 -60 11 -19 3 -61 14 -93 25 -228 79 -369 247 -382 456 -1 22 -3
43 -4 47 0 3 -101 6 -223 5 l-223 -2 -1 -44 c-1 -75 30 -225 63 -301 130 -302
382 -485 763 -555 156 -29 433 -33 585 -9 94 14 123 20 135 24 3 1 10 3 15 4
56 9 287 104 305 125 3 4 25 19 50 35 44 28 175 157 216 213 91 123 146 304
147 488 1 126 -2 161 -27 269 -39 166 -140 338 -265 451 -25 22 -55 50 -67 63
-13 12 -26 22 -29 22 -4 0 -25 13 -48 29 -89 60 -218 115 -402 170 -522 155
-548 164 -632 218 -152 99 -242 253 -258 440 -4 59 -4 61 22 68 107 27 168
165 119 273 l-19 41 29 25 c50 43 146 89 234 112 106 27 307 30 420 8 94 -19
222 -81 276 -132 83 -79 140 -192 149 -295 9 -102 -17 -92 231 -92 l219 0 -1
55 c-2 99 -18 180 -56 280 -24 65 -89 180 -100 180 -4 0 -8 5 -8 11 0 13 -93
114 -137 149 -136 108 -311 187 -478 215 -79 13 -119 18 -182 19 -40 0 -73 3
-73 6 0 3 42 25 93 49 394 187 718 541 870 951 35 93 70 220 81 290 3 19 8 46
11 60 35 170 21 463 -32 675 -8 33 -16 67 -18 75 -7 33 -60 170 -96 248 -160
346 -462 652 -809 819 -119 56 -148 68 -260 101 -190 56 -301 70 -520 67 -107
-2 -206 -6 -220 -8 -14 -3 -41 -8 -60 -12 -19 -4 -39 -8 -45 -9 -5 -1 -26 -6
-45 -10 -19 -4 -66 -17 -105 -29 -38 -11 -72 -21 -75 -22 -11 -4 -50 -20 -138
-58 -107 -46 -224 -114 -332 -194 -68 -51 -269 -245 -313 -304 -43 -56 -136
-198 -163 -249 -16 -30 -33 -58 -39 -62 -5 -4 -7 -8 -3 -8 4 0 -5 -26 -21 -57
-47 -93 -113 -312 -127 -426 -3 -23 -8 -53 -10 -67 -7 -37 -16 -295 -13 -410
0 -8 -3 -188 -7 -400 -3 -212 -7 -505 -8 -652 0 -148 -3 -268 -6 -268 -3 0 -6
-87 -6 -193 -1 -105 -4 -336 -8 -512 -3 -176 -8 -502 -11 -725 -5 -408 -9
-518 -21 -600 -20 -141 -97 -357 -165 -465 -16 -25 -29 -48 -29 -51 0 -25
-214 -259 -300 -329 -89 -72 -250 -161 -360 -199 -175 -61 -279 -79 -465 -80
-159 0 -203 6 -405 59 -96 26 -257 107 -364 183 -95 69 -226 195 -287 277 -24
33 -46 62 -49 65 -23 23 -113 203 -143 287 -56 156 -79 279 -80 441 -4 362
129 695 379 947 78 79 142 135 154 135 5 0 10 3 12 8 5 13 110 78 193 120 100
50 224 92 345 117 28 5 104 14 170 20 113 9 183 15 255 21 l70 6 -25 -28 c-14
-15 -38 -42 -55 -59 -142 -151 -236 -254 -253 -275 -53 -69 -51 -179 4 -239
13 -14 24 -29 24 -32 0 -9 77 -40 114 -46 15 -2 49 1 75 9 51 14 70 32 261
238 63 69 147 158 186 200 39 41 97 104 130 139 32 35 92 98 131 140 103 108
126 164 103 251 -12 48 -69 108 -304 325 -60 55 -126 116 -146 135 -20 19 -65
61 -99 93 l-62 57 16 78 c9 42 19 106 23 142 3 36 6 637 6 1335 l1 1270 -625
3 -626 2 0 -187z m1039 -3034 c17 -17 48 -46 68 -64 48 -43 52 -51 26 -52 -32
-1 -151 -11 -227 -19 -124 -12 -144 -9 -95 17 37 20 166 125 173 142 7 14 22
7 55 -24z m2977 -268 c3 -1 -19 -14 -47 -30 -29 -16 -70 -42 -90 -58 -21 -16
-43 -33 -50 -37 -7 -4 -35 15 -69 49 -43 42 -52 55 -38 56 11 1 33 3 49 4 17
2 65 6 108 8 43 3 80 7 83 9 3 4 33 3 54 -1z"/>
</g>
</svg>
